<?xml version="1.0" encoding="UTF-8" standalone="no"?>
<!DOCTYPE svg PUBLIC "-//W3C//DTD SVG 1.1//EN" "http://www.w3.org/Graphics/SVG/1.1/DTD/svg11.dtd">
<svg width="100%" height="100%" viewBox="0 0 900 400" version="1.1" xmlns="http://www.w3.org/2000/svg" xmlns:xlink="http://www.w3.org/1999/xlink" xml:space="preserve" xmlns:serif="http://www.serif.com/" style="fill-rule:evenodd;clip-rule:evenodd;stroke-linecap:round;stroke-linejoin:round;stroke-miterlimit:1.5;">
    <g transform="matrix(0.492026,0,0,0.492026,329.444,46.7622)">
        <path d="M182.54,374.843C169.993,356.998 159.346,339.606 149.915,332.696C112.137,305.02 90.055,244.197 90.055,204.026C90.055,200.239 90.191,196.484 90.458,192.765C90.053,192.746 87.072,193.178 78.596,190.525C46.34,180.429 16.682,135.848 16.682,101.457C16.682,62.191 41.523,21.673 78.361,21.517C119.982,21.341 130.144,47.263 144.86,66.766C149.94,73.196 159.015,74.832 166.02,70.58C177.384,63.818 189.682,58.463 202.672,54.761C214.34,50.883 227.974,48.839 243.866,48.839C244.095,48.839 244.325,48.839 244.554,48.841C244.783,48.839 245.012,48.839 245.242,48.839C261.133,48.839 274.768,50.883 286.435,54.761C299.64,58.524 312.128,63.995 323.646,70.918C330.63,75.199 339.709,73.606 344.819,67.204C359.707,47.649 369.709,21.34 411.639,21.517C448.477,21.673 473.318,62.191 473.318,101.457C473.318,136.347 443.283,183.742 410.003,190.959C400.142,193.097 398.676,193.099 398.57,192.94C398.577,192.909 398.584,192.883 398.593,192.862C398.626,192.825 398.673,192.796 398.652,192.797C398.628,192.799 398.609,192.821 398.593,192.862C398.57,192.887 398.554,192.916 398.57,192.94C398.344,193.989 399.053,200.552 399.053,204.026C399.053,244.197 376.971,305.02 339.193,332.696C329.779,339.593 319.493,356.936 307.367,374.749L383.965,396.056L387.401,398.261L388.211,399.84L388.223,401.505L387.398,402.93L385.917,403.906L381.839,404.135L300.855,384.052C299.459,385.98 298.039,387.892 296.595,389.777L374.383,429.548L377.309,432.396L377.786,434.105L377.463,435.74L376.37,436.972L374.722,437.631L370.682,437.038L289.627,398.363C288.492,399.676 287.342,400.962 286.177,402.215L347.974,455.281L350.151,458.737L350.216,460.509L349.521,462.022L348.171,462.963L346.416,463.218L342.625,461.699L278.459,409.788C268.681,418.439 257.86,424.366 245.741,424.924C245.574,424.952 245.309,424.917 245.242,424.905C233.048,424.344 222.028,418.35 211.997,409.615L147.625,461.693L143.826,463.218L142.071,462.963L140.708,462.007L140.026,460.509L140.091,458.737L142.268,455.281L204.193,402.105C203.019,400.871 201.859,399.607 200.713,398.316L119.568,437.034L115.519,437.631L113.872,436.972L112.769,435.722L112.456,434.105L112.933,432.396L115.858,429.548L193.604,389.799C192.12,387.92 190.661,386.014 189.226,384.092L108.412,404.133L104.325,403.906L102.844,402.93L102.014,401.486L102.031,399.84L102.841,398.261L106.277,396.056L182.54,374.843ZM145.11,219.823C144.432,218.353 142.935,217.436 141.317,217.5C139.699,217.564 138.279,218.596 137.719,220.115C132.671,233.817 124.871,259.506 132.064,270.889C140.273,283.878 149.414,289.157 173.973,292.687C184.856,294.252 196.653,294.557 205.462,294.491C207.247,294.479 208.81,293.291 209.299,291.574C209.788,289.857 209.085,288.023 207.573,287.073C196.879,280.182 180.702,268.547 167.432,253.927C156.834,242.252 149.296,228.53 145.11,219.823ZM344.373,219.823C345.051,218.353 346.549,217.436 348.167,217.5C349.785,217.564 351.205,218.596 351.765,220.115C356.812,233.817 364.613,259.506 357.419,270.889C349.211,283.878 340.069,289.157 315.511,292.687C304.627,294.252 292.83,294.557 284.021,294.491C282.236,294.479 280.673,293.291 280.185,291.574C279.696,289.857 280.399,288.023 281.91,287.073C292.604,280.182 308.781,268.547 322.052,253.927C332.649,242.252 340.188,228.53 344.373,219.823Z" style="fill:black;stroke:black;stroke-width:2.03px;"/>
    </g>
    <g transform="matrix(66.4814,0,0,66.4814,291.902,342.651)">
        <path d="M0.506,-0.5C0.55,-0.5 0.587,-0.484 0.619,-0.453C0.65,-0.422 0.666,-0.384 0.666,-0.34L0.666,-0.273L0.605,-0.273L0.605,-0.34C0.605,-0.368 0.596,-0.392 0.576,-0.411C0.557,-0.43 0.533,-0.44 0.506,-0.44L0.262,-0.44C0.234,-0.44 0.211,-0.43 0.193,-0.411C0.175,-0.392 0.166,-0.368 0.166,-0.34L0.166,0L0.098,0L0.098,-0.5L0.166,-0.5L0.166,-0.469C0.194,-0.49 0.227,-0.5 0.262,-0.5L0.506,-0.5Z" style="fill:black;fill-rule:nonzero;"/>
    </g>
    <g transform="matrix(66.4814,0,0,66.4814,338.744,342.651)">
        <path d="M0.597,-0.229C0.597,-0.238 0.594,-0.245 0.588,-0.251C0.582,-0.257 0.575,-0.26 0.566,-0.26L0.255,-0.26C0.23,-0.259 0.208,-0.251 0.189,-0.233C0.171,-0.216 0.16,-0.196 0.158,-0.171L0.158,-0.15C0.16,-0.125 0.171,-0.104 0.189,-0.087C0.208,-0.069 0.23,-0.06 0.255,-0.06L0.5,-0.06C0.526,-0.061 0.549,-0.07 0.568,-0.089C0.587,-0.108 0.597,-0.131 0.597,-0.157L0.597,-0.229ZM0.498,-0.5C0.535,-0.5 0.568,-0.488 0.597,-0.464C0.642,-0.429 0.665,-0.387 0.665,-0.34L0.665,0L0.597,0L0.597,-0.035C0.568,-0.012 0.535,0 0.498,0L0.257,0C0.213,0 0.176,-0.016 0.145,-0.047C0.113,-0.078 0.098,-0.116 0.098,-0.16C0.098,-0.175 0.1,-0.191 0.104,-0.206C0.114,-0.239 0.133,-0.266 0.161,-0.288C0.189,-0.309 0.222,-0.32 0.257,-0.32L0.566,-0.32C0.577,-0.32 0.587,-0.318 0.597,-0.314L0.597,-0.34C0.597,-0.368 0.587,-0.391 0.568,-0.411C0.548,-0.43 0.525,-0.44 0.497,-0.44L0.258,-0.44C0.23,-0.44 0.207,-0.43 0.187,-0.411C0.167,-0.391 0.158,-0.368 0.158,-0.34L0.098,-0.34C0.098,-0.384 0.113,-0.422 0.145,-0.453C0.176,-0.484 0.213,-0.5 0.257,-0.5L0.498,-0.5Z" style="fill:black;fill-rule:nonzero;"/>
    </g>
    <g transform="matrix(66.4814,0,0,66.4814,387.501,342.651)">
        <path d="M0.661,-0.227L0.661,-0.16C0.661,-0.116 0.645,-0.078 0.614,-0.047C0.583,-0.016 0.545,0 0.5,0L0.327,0C0.292,0 0.26,-0.01 0.231,-0.031C0.186,-0.063 0.163,-0.106 0.163,-0.16L0.163,-0.44L0.068,-0.44L0.068,-0.5L0.163,-0.5L0.163,-0.616L0.231,-0.616L0.231,-0.5L0.618,-0.5L0.618,-0.44L0.231,-0.44L0.231,-0.16C0.231,-0.132 0.24,-0.108 0.258,-0.089C0.277,-0.069 0.3,-0.06 0.327,-0.06L0.5,-0.06C0.528,-0.06 0.552,-0.069 0.571,-0.089C0.591,-0.108 0.601,-0.132 0.601,-0.16L0.601,-0.227L0.661,-0.227Z" style="fill:black;fill-rule:nonzero;"/>
    </g>
    <g transform="matrix(66.4814,0,0,66.4814,434.668,342.651)">
        <path d="M1.052,0L0.992,0L0.992,-0.34C0.992,-0.368 0.982,-0.391 0.962,-0.411C0.943,-0.43 0.919,-0.44 0.892,-0.44L0.708,-0.44C0.681,-0.44 0.658,-0.43 0.638,-0.411C0.619,-0.391 0.609,-0.368 0.609,-0.34L0.609,0L0.549,0L0.549,-0.34C0.549,-0.368 0.539,-0.391 0.52,-0.411C0.5,-0.43 0.476,-0.44 0.449,-0.44L0.266,-0.44C0.238,-0.44 0.214,-0.43 0.195,-0.411C0.175,-0.391 0.166,-0.368 0.166,-0.34L0.166,0L0.098,0L0.098,-0.5L0.166,-0.5L0.166,-0.464C0.195,-0.488 0.228,-0.5 0.266,-0.5L0.449,-0.5C0.486,-0.5 0.52,-0.488 0.549,-0.464C0.561,-0.455 0.57,-0.444 0.579,-0.433C0.611,-0.477 0.654,-0.5 0.708,-0.5L0.892,-0.5C0.93,-0.5 0.963,-0.488 0.992,-0.464C1.032,-0.432 1.052,-0.391 1.052,-0.34L1.052,0Z" style="fill:black;fill-rule:nonzero;"/>
    </g>
    <g transform="matrix(66.4814,0,0,66.4814,509.135,342.651)">
        <path d="M0.597,-0.34C0.597,-0.368 0.587,-0.391 0.568,-0.411C0.548,-0.43 0.525,-0.44 0.498,-0.44L0.258,-0.44C0.23,-0.44 0.207,-0.43 0.187,-0.411C0.167,-0.391 0.158,-0.368 0.158,-0.34L0.158,-0.16C0.158,-0.132 0.167,-0.108 0.187,-0.089C0.207,-0.069 0.23,-0.06 0.258,-0.06L0.498,-0.06C0.525,-0.06 0.548,-0.069 0.568,-0.089C0.587,-0.108 0.597,-0.132 0.597,-0.16L0.597,-0.34ZM0.498,-0.5C0.542,-0.5 0.579,-0.484 0.61,-0.453C0.642,-0.421 0.657,-0.384 0.657,-0.34L0.657,-0.16C0.657,-0.116 0.642,-0.078 0.61,-0.047C0.579,-0.016 0.542,0 0.498,0L0.258,0C0.214,0 0.176,-0.016 0.145,-0.047C0.113,-0.078 0.098,-0.116 0.098,-0.16L0.098,-0.34C0.098,-0.384 0.113,-0.421 0.145,-0.453C0.176,-0.484 0.214,-0.5 0.258,-0.5L0.498,-0.5Z" style="fill:black;fill-rule:nonzero;"/>
    </g>
    <g transform="matrix(66.4814,0,0,66.4814,557.373,342.651)">
        <path d="M0.158,-0.16C0.158,-0.132 0.167,-0.108 0.187,-0.089C0.207,-0.069 0.23,-0.06 0.258,-0.06L0.497,-0.06C0.525,-0.06 0.548,-0.069 0.568,-0.089C0.587,-0.108 0.597,-0.132 0.597,-0.16L0.597,-0.34C0.597,-0.368 0.587,-0.391 0.568,-0.411C0.548,-0.43 0.525,-0.44 0.497,-0.44L0.258,-0.44C0.231,-0.44 0.207,-0.428 0.187,-0.404C0.167,-0.38 0.158,-0.354 0.158,-0.326L0.158,-0.16ZM0.597,-0.464L0.597,-0.7L0.665,-0.7L0.665,0L0.597,0L0.597,-0.035C0.569,-0.012 0.536,0 0.498,0L0.257,0C0.213,0 0.176,-0.016 0.145,-0.047C0.113,-0.078 0.098,-0.116 0.098,-0.16L0.098,-0.34C0.098,-0.384 0.113,-0.421 0.145,-0.453C0.176,-0.484 0.213,-0.5 0.257,-0.5L0.498,-0.5C0.536,-0.5 0.569,-0.488 0.597,-0.464Z" style="fill:black;fill-rule:nonzero;"/>
    </g>
</svg>
